<?xml version="1.0" encoding="utf-8"?>
<svg version="1.1" xmlns="http://www.w3.org/2000/svg" xmlns:xlink="http://www.w3.org/1999/xlink" x="0px" y="0px"
	viewBox="0 0 763 458.4" style="enable-background:new 0 0 763 458.4;" xml:space="preserve">
	<style type="text/css">
		.st0 {
			fill: #B19A69;
		}

		.st1 {
			fill: #B49C68;
		}
	</style>
	<g>
		<path class="st0" d="M419.8,102.3c-3,0-5.4,0.7-7.2,2.2c-1.8,1.5-3.4,3.4-4.8,5.8c-1.4,2.4-2.6,5.1-3.8,8.1c-1.2,3-2.6,6-4.2,9
		c-1.6,3-3.6,5.9-5.9,8.7c-2.3,2.7-5.4,5.1-9.1,7v0.4c4.3,0.8,8,1.9,11.2,3.3c3.2,1.4,5.9,3,8.1,4.9c2.2,1.8,4.1,3.9,5.8,6.1
		c1.7,2.3,3.2,4.9,4.7,7.9c1.4,3,2.8,6.4,4.3,10.3c1.4,3.9,3,8.4,4.9,13.6c0.8,2.3,1.6,4.2,2.5,5.7c0.9,1.5,1.9,2.7,3,3.6
		c1.1,0.9,2.2,1.6,3.4,1.9c1.2,0.4,2.4,0.8,3.7,1.2c1.2,0.3,1.7,1.2,1.7,2.7c0,0.5,0,1.1-0.1,1.7c-0.1,0.6-0.2,1.2-0.3,1.8
		c-3-0.3-6-0.5-8.9-0.7c-3-0.2-5.8-0.3-8.6-0.3c-2.7,0-5-0.3-6.9-0.8c-1.9-0.5-3.4-1.3-4.6-2.3c-1.2-1-2.1-2.3-2.8-3.9
		c-0.7-1.6-1.3-3.4-1.8-5.4c-2.5-9.5-4.8-17.1-6.9-22.8c-2.1-5.8-4.8-10.5-7.9-14.1c-1.7-1.9-3.4-3.5-5.2-4.8
		c-1.8-1.2-3.9-2.2-6.1-2.9c-2.3-0.7-4.8-1.2-7.7-1.5c-2.9-0.3-6.1-0.4-9.7-0.4H358v44.7c0,2.6,0.8,4.4,2.4,5.4c1.6,1,4.6,2,9,2.9
		c0.6,0.1,1.2,0.4,1.6,0.8c0.4,0.4,0.6,1.1,0.6,2.1c0,0.5,0,1-0.1,1.6c-0.1,0.5-0.2,1.1-0.3,1.8c-4.2-0.3-8.1-0.5-11.9-0.7
		c-3.8-0.2-7.3-0.3-10.5-0.3c-3.4,0-7.2,0.1-11.4,0.3c-4.2,0.2-8.3,0.4-12.2,0.7c-0.1-0.7-0.2-1.2-0.3-1.8c-0.1-0.5-0.1-1-0.1-1.4
		c0-1.9,0.6-3,1.9-3.1c4.9-1,8.3-2,10.1-3c1.8-1,2.7-2.8,2.7-5.3v-99c0-2.6-0.9-4.4-2.7-5.5c-1.8-1.1-5.2-2-10.1-2.8
		c-1.3-0.1-1.9-1.2-1.9-3.3c0-0.4,0-0.8,0.1-1.4c0.1-0.5,0.2-1.1,0.3-1.7c3.8,0.3,7.8,0.5,12.1,0.7c4.3,0.2,8,0.3,11.3,0.3
		c3.4,0,7.1-0.1,11.3-0.3c4.1-0.2,8.3-0.4,12.4-0.7c0.1,0.7,0.2,1.2,0.3,1.7c0.1,0.5,0.1,1,0.1,1.4c0,2.1-0.7,3.2-1.9,3.3
		c-4.9,0.8-8.3,1.7-10.1,2.8c-1.8,1.1-2.7,3-2.7,5.5v46.5h3.9c7.9,0,14.1-1.6,18.7-4.7c4.5-3.1,8.2-7,10.9-11.6
		c2.7-4.6,4.9-9.6,6.5-15.1c1.6-5.4,3.5-10.5,5.5-15.1c2.1-4.6,4.8-8.5,8.1-11.6c3.3-3.1,8-4.7,14.1-4.7c1.4,0,2.8,0.2,4.2,0.5
		c1.4,0.3,2.4,0.7,3,1.1c1,0.7,1.6,2.1,1.6,4.3c0,1.8-0.3,3.8-0.8,6c-0.5,2.2-1.2,4.3-2,6.2c-0.8,1.9-1.8,3.6-2.8,5
		c-1,1.4-2.1,2-3.3,2c-1,0-1.9-0.1-2.5-0.4C422.2,102.4,421.2,102.3,419.8,102.3z" />
		<g>
			<g>
				<path class="st1" d="M386.8,440.6c0,3.4-2.7,6.1-6.1,6.1c-3.3,0-6.1-2.7-6.1-6.1c0-3.3,2.7-6.1,6.1-6.1
				C384.1,434.5,386.8,437.3,386.8,440.6z" />
				<path class="st1" d="M337.2,439c15.1-6.4,30.4-1.4,35.3,0.5c-4.5-3.8-21.8-16.6-45.7-9.6c-27.4,8-40.7-0.9-40.7-0.9
				s5.9,21.5,33.5,16.6c0,0-7.4,4.1-18.1,3.5c0,0,13.9,13.4,32.1,3.1c18.3-10.4,29.6-12.2,35.4-12.2
				C352.1,433.3,337.2,439,337.2,439z" />
				<path class="st1" d="M355,453.6c0,0,10.6-3.4,16.6-10.4c-4.4-0.3-18.6,0-29.7,14c0,0,24.1,7.1,31.1-13.8
				C373,443.4,366.4,451,355,453.6z" />
				<path class="st1"
					d="M476.8,429c0,0-13.3,8.8-40.7,0.9c-23.9-6.9-41.2,5.8-45.7,9.6c4.9-2,20.2-7,35.3-0.5c0,0-15-5.7-31.8,1
				c5.8,0,17.1,1.8,35.4,12.2c18.2,10.3,32.1-3.1,32.1-3.1c-10.7,0.6-18.1-3.5-18.1-3.5C470.9,450.5,476.8,429,476.8,429z" />
				<path class="st1" d="M391.4,443.3c6.1,6.9,16.6,10.4,16.6,10.4c-11.4-2.6-18.1-10.2-18.1-10.2c7,21,31.1,13.8,31.1,13.8
				C410,443.3,395.8,443,391.4,443.3z" />
			</g>
			<g>
				<g>
					<path class="st1" d="M293.2,165.5c-0.8-15.8,6.2-32.1,15.5-51.2c11.9-24.4,7.8-43.7,5.6-50.7c3.5,1,10,2.4,18.1,2.4
					c13.6,0,32.9-4.1,49.1-23.6C397.6,61.8,417,66,430.5,66c8.1,0,14.6-1.4,18.1-2.4c-2.3,7.1-6.3,26.3,5.6,50.7
					c9.3,19.1,16.3,35.4,15.5,51.2c0.9-0.4,1.9-0.7,2.9-1c0.1-15.3-6.2-31.8-15.8-51.5c-14.1-29.1-4.6-50.9-4.5-51.2l1.5-3.2
					l-3.3,1.3c-0.1,0-8.4,3.2-20,3.2c-13.2,0-32.3-4.1-47.9-23.9l-1.1-1.5l-1.1,1.5c-15.6,19.8-34.7,23.9-47.9,23.9
					c-11.6,0-19.9-3.1-20-3.2l-3.3-1.3l1.5,3.2c0.1,0.2,9.7,22-4.5,51.2c-9.6,19.7-15.9,36.2-15.8,51.5
					C291.3,164.8,292.3,165.1,293.2,165.5z" />
					<path class="st1" d="M381.5,248.1c-63.4-31.7-85.7-55.5-88.1-80.3c-1-0.4-2-0.8-3-1.1c1.4,27.6,24.9,51.7,90.5,84.3l0.7,0.3
					l0.6-0.3c65.5-32.6,89-56.7,90.5-84.3c-1,0.3-2,0.7-3,1.1C467.2,192.6,444.9,216.4,381.5,248.1z" />
				</g>
				<g>
					<path class="st1"
						d="M278,162.9c3-0.1,5.7,0.2,8.3,0.7c0.1-15.7,6.6-32.6,16.2-52.3c13.3-27.3,4.8-47,4.4-47.8l-5.3-12l12.2,4.7
					c0.1,0,7.8,2.9,18.6,2.9c12.3,0,30.1-3.9,44.8-22.4l4.3-5.4l4.3,5.4c14.6,18.5,32.4,22.4,44.8,22.4c10.6,0,18.3-2.8,18.6-2.9
					l12.3-4.7l-5.4,12c-0.4,0.8-8.8,20.4,4.4,47.8c9.6,19.7,16.1,36.5,16.2,52.3c2.6-0.5,5.3-0.7,8.3-0.7
					c-0.2-18.5-8.1-36.7-17.1-55.2c-11.4-23.5-4.6-40.1-4.3-40.8l2.3-5.1c2.1-1.2,4.2-2.6,6.1-4.4c7.3-6.9,10-16.5,7.6-24
					c-7.4-2.8-17-0.5-24.3,6.4c-2.3,2.2-4.1,4.7-5.5,7.3l-3.4,1.3c-0.3,0.1-6.8,2.4-15.7,2.4c-15.3,0-28.2-6.5-38.3-19.3l-0.2-0.2
					c1-2.9,1.6-6,1.6-9.3c0-10.1-5-18.6-12.1-22c-7.1,3.4-12.1,12-12.1,22c0,3.3,0.6,6.4,1.6,9.3l-0.2,0.2
					c-10.1,12.8-23,19.3-38.3,19.3c-9,0-15.6-2.4-15.6-2.4l-3.5-1.3c-1.4-2.6-3.2-5.1-5.5-7.3c-7.3-6.9-16.9-9.2-24.3-6.4
					c-2.4,7.5,0.3,17,7.6,24c1.9,1.8,4,3.3,6.2,4.5l2.1,4.9c0.3,0.7,7.2,17.3-4.3,40.9C286.1,126.1,278.2,144.4,278,162.9z" />
					<path class="st1" d="M383.9,254.6l-2.4,1.2l-2.4-1.2c-68.1-33.9-91.8-59.6-92.7-88.9c-2.8-0.6-5.6-0.8-8.3-0.8
					c0.1,7.4,1.5,14.8,4.6,22.3c10.4,25.2,38.2,47.6,92.8,74.8l6.1,3l6.1-3c54.6-27.2,82.3-49.6,92.7-74.8
					c3.1-7.5,4.5-14.9,4.6-22.3c-2.7,0-5.5,0.2-8.3,0.8C475.7,195,452,220.7,383.9,254.6z" />
				</g>
				<path class="st1" d="M194.2,245.2c-0.1-0.1-0.2-0.2-0.2-0.2C194.1,245.1,194.2,245.1,194.2,245.2c1.8,1.9,15.2,15.4,41.4,14.1
				c-7.5-0.5-22.4-2.9-31.2-13c0,0,14,12.3,34.4,11.3c-13.5-6.6-15.4-16.8-29.8-23.8c-12.5-6.1-30.7-3.2-30.7-3.2
				c5.3,43.8,49.5,33.6,61.7,29.9C231.6,261.4,207.9,262.3,194.2,245.2z" />
				<path class="st1" d="M321.6,249.6c-45.4-8.3-71.7-38.2-43.6-57.6c0,0-27.1-11.3-37,16.3c0,0,0.5-7.5,7.8-14.8
				c0.6-3.2,4.1-15.5,21.2-20.7c13.9-4.3,24.5-2.7,31-0.6c-20-14.8-46.6-2.2-46.6-2.2c32.9-18.7,54,5.7,54,5.7s-2.4-36.7-39.9-43
				c-27.5-4.6-70.1,24.2-60.5,72.5c6.5,32.3,34.7,45.3,64,53c24.2-4.7,38.3-1.7,38.3-1.7c-19.5-0.3-32.9,3.1-32.9,3.1
				c-7.6,1.7-15.5,3.9-23.6,6.8c-45.3,16.2-78.3,0.4-78.3,0.4c30.6,36.2,73.2,44.1,123.8,17.1c44.9-24,80.5-1.3,80.5-1.3
				S365.9,257.7,321.6,249.6z" />
				<path class="st1" d="M319.1,289.6c27.6-18.2,59-5.7,59-5.7s-31.8-17.5-74,3.5c-34.5,17.2-44,15.7-44,15.7s25.8,17.9,53.3,2.2
				c20.6-11.8,31.7-21.6,59.1-21.5C342.4,275.8,319.1,289.6,319.1,289.6z" />
				<path class="st1" d="M553.9,233.8c-14.4,7-16.3,17.2-29.8,23.8c20.4,1,34.4-11.3,34.4-11.3c-8.7,10.1-23.7,12.5-31.2,13
				c26.2,1.3,39.6-12.1,41.4-14.1c0.1-0.1,0.2-0.2,0.2-0.2c0,0-0.1,0.1-0.2,0.2c-13.6,17-37.3,16.2-45.8,15.2
				c12.2,3.7,56.4,13.8,61.7-29.9C584.6,230.6,566.4,227.7,553.9,233.8z" />
				<path class="st1"
					d="M509,266.3c-8.1-2.9-16-5.1-23.6-6.8c0,0-13.4-3.4-32.9-3.1c0,0,14.1-3,38.3,1.7c29.3-7.7,57.6-20.8,64-53
				c9.7-48.3-32.9-77.1-60.5-72.5c-37.5,6.3-39.9,43-39.9,43s21-24.4,54-5.7c0,0-26.6-12.6-46.6,2.3c6.5-2.1,17.1-3.7,31,0.6
				c17.1,5.3,20.6,17.5,21.2,20.7c7.4,7.3,7.8,14.8,7.8,14.8c-9.9-27.6-37-16.3-37-16.3c28.1,19.4,1.8,49.3-43.6,57.6
				c-44.3,8.1-58.3,32.8-58.3,32.8s35.6-22.7,80.5,1.3c50.6,27,93.2,19.1,123.8-17.1C587.3,266.6,554.4,282.4,509,266.3z" />
				<path class="st1" d="M458.8,287.4c-42.2-21-74-3.5-74-3.5s31.4-12.6,59,5.7c0,0-23.3-13.8-53.4-5.8c27.4-0.1,38.5,9.7,59.2,21.5
				c27.5,15.7,53.3-2.2,53.3-2.2S493.3,304.6,458.8,287.4z" />
				<path class="st1" d="M393.6,298.4c0,6.5-5.2,11.7-11.7,11.7c-6.5,0-11.7-5.2-11.7-11.7c0-6.5,5.3-11.7,11.7-11.7
				C388.4,286.6,393.6,291.9,393.6,298.4z" />
			</g>
		</g>
		<g>
			<path class="st0" d="M0,339.7h31v3.4h-6.6c-1.4,0-2.5,0.4-3.3,1.1c-0.8,0.7-1.1,1.7-1.1,2.8v31.5l25.5-27.3
			c1.5-1.6,2.2-3.1,2.2-4.5c0-1.1-0.5-1.9-1.5-2.6c-1-0.7-2.7-1-4.9-1h-1.9v-3.4h27.8v3.4H65c-1.9,0-3.9,0.5-6.1,1.6
			c-2.2,1.1-4.3,2.6-6.2,4.6L37,365.7l22.5,33.1c1.3,1.9,2.6,3.2,3.9,4c1.3,0.8,2.9,1.2,4.8,1.2h2.5v3.4H40V404h3.5
			c2.5,0,4.2-0.2,5.1-0.6c0.8-0.4,1.3-1,1.3-1.6c0-0.6-0.2-1.2-0.5-1.7l-18.7-27.5L20,383.9v16.7c0,1,0.3,1.8,0.9,2.3
			c1,0.7,2.1,1.1,3.5,1.1H31v3.4H0V404h6c1.5,0,2.7-0.3,3.4-0.9c0.7-0.6,1.1-1.4,1.1-2.4v-54.1c0-1.1-0.4-1.9-1.2-2.5
			c-0.8-0.6-2.2-0.9-4.2-0.9H0V339.7z" />
			<path class="st0" d="M71.6,339.7h35c6.8,0,12,1.5,15.8,4.6c3.7,3.1,5.6,7.1,5.6,12.1c0,3-0.7,5.7-2.2,8c-1.5,2.3-3.6,4.2-6.4,5.6
			c-2.8,1.4-7.2,2.4-13.2,3c4.4,1.2,7.4,2.4,9,3.5c1.6,1.1,3,2.6,4,4.4c1,1.8,2.1,5.5,3.4,11.1c0.9,4,1.9,6.7,2.9,8.2
			c0.8,1.1,1.6,1.7,2.6,1.7c0.9,0,1.8-0.7,2.6-2.1c0.8-1.4,1.3-3.8,1.5-7.4h3.1c-0.6,10.4-4.4,15.6-11.5,15.6
			c-2.2,0-4.2-0.6-5.8-1.7c-1.6-1.1-2.9-2.8-3.7-5c-0.6-1.6-1.4-6-2.2-13c-0.5-4.1-1.2-6.9-2.2-8.7c-1-1.7-2.5-3.1-4.7-4.1
			c-2.1-1-4.6-1.6-7.6-1.6h-5.5v26.6c0,1.1,0.3,1.9,0.9,2.4c0.7,0.6,1.9,0.9,3.4,0.9h6.5v3.4H71.6V404h6.6c1.5,0,2.5-0.3,3.2-0.9
			c0.7-0.6,1-1.4,1-2.4v-54.1c0-1.2-0.4-2-1.1-2.6c-0.7-0.6-1.8-0.9-3.2-0.9h-6.6V339.7z M92.2,370.8h8c5.4,0,9.6-1,12.6-3
			c3-2,4.6-5.6,4.6-10.8c0-3.6-0.6-6.4-1.7-8.5c-1.1-2.1-2.7-3.5-4.5-4.3c-1.9-0.8-5.5-1.1-11-1.1c-3.6,0-5.8,0.3-6.7,0.8
			c-0.9,0.5-1.3,1.4-1.3,2.6V370.8z" />
			<path class="st0" d="M172.8,338.3c5.7,0,11.1,1.5,16.1,4.5c5,3,8.9,7.2,11.7,12.6c2.8,5.4,4.2,11.5,4.2,18.2
			c0,6.8-1.4,12.8-4.3,18.3c-2.8,5.4-6.7,9.7-11.7,12.7c-5,3-10.2,4.6-15.8,4.6c-5.4,0-10.5-1.5-15.3-4.5c-4.8-3-8.6-7.2-11.5-12.8
			c-2.9-5.5-4.3-11.7-4.3-18.4c0-6.7,1.4-12.7,4.2-18c2.8-5.4,6.6-9.6,11.5-12.6C162.5,339.8,167.6,338.3,172.8,338.3z M173.6,341.8
			c-6,0-10.8,2.5-14.5,7.4c-3.7,4.9-5.5,13-5.5,24.2c0,12.1,1.9,20.5,5.7,25.2c3.8,4.6,8.5,7,14.1,7c3.9,0,7.3-1.1,10.3-3.2
			c3-2.1,5.3-5.4,7.1-10c1.8-4.6,2.6-10.6,2.6-18c0-8.1-0.8-14.5-2.5-19c-1.6-4.6-4-7.9-7.1-10.1
			C180.7,342.9,177.3,341.8,173.6,341.8z" />
			<path class="st0" d="M213.7,339.7h31v3.4h-6.6c-1.4,0-2.5,0.4-3.3,1.1c-0.8,0.7-1.1,1.7-1.1,2.8v31.5l25.5-27.3
			c1.5-1.6,2.2-3.1,2.2-4.5c0-1.1-0.5-1.9-1.5-2.6c-1-0.7-2.7-1-4.9-1h-1.9v-3.4h27.8v3.4h-2.2c-1.9,0-3.9,0.5-6.1,1.6
			c-2.2,1.1-4.3,2.6-6.2,4.6l-15.7,16.4l22.5,33.1c1.3,1.9,2.6,3.2,3.9,4c1.3,0.8,2.9,1.2,4.8,1.2h2.5v3.4h-30.6V404h3.5
			c2.5,0,4.2-0.2,5.1-0.6c0.8-0.4,1.3-1,1.3-1.6c0-0.6-0.2-1.2-0.5-1.7l-18.7-27.5l-10.6,11.4v16.7c0,1,0.3,1.8,0.9,2.3
			c1,0.7,2.1,1.1,3.5,1.1h6.6v3.4h-31V404h6c1.5,0,2.7-0.3,3.4-0.9c0.7-0.6,1.1-1.4,1.1-2.4v-54.1c0-1.1-0.4-1.9-1.2-2.5
			c-0.8-0.6-2.2-0.9-4.2-0.9h-5V339.7z" />
			<path class="st0" d="M285.4,339.7h31.3v3.4h-6.3c-1.7,0-2.9,0.3-3.5,0.8c-0.7,0.5-1,1.4-1,2.5v38.3c0,4,0.3,7,1.1,9.1
			c1,3,2.9,5.4,5.7,7.2c2.8,1.8,6.4,2.7,10.8,2.7c6.2,0,10.9-1.6,14.1-4.8c3.2-3.2,4.9-7.5,4.9-12.8V355c0-2.7-0.2-4.8-0.6-6.3
			c-0.4-1.4-0.9-2.5-1.6-3.3c-0.7-0.8-1.6-1.4-2.7-1.8c-1.1-0.4-2.9-0.6-5.5-0.6v-3.4h25.6v3.4h-1.8c-2.9,0-5,0.8-6.4,2.3
			c-1.4,1.5-2.1,3.8-2.1,6.7v33.3c0,7.3-2.1,12.8-6.2,16.7c-4.7,4.4-10.9,6.6-18.6,6.6c-6.7,0-12-1-15.8-2.9
			c-3.8-1.9-6.6-4.7-8.4-8.2c-1.3-2.7-2-6.1-2-10.3v-40.9c0-1-0.4-1.9-1.1-2.4c-0.7-0.6-1.8-0.9-3.2-0.9h-6.4V339.7z" />
			<path class="st0" d="M402.7,344.8l4.1-5.9h3.3l0.3,24.7h-3c-1.9-7.6-4.7-13.1-8.4-16.6c-3.7-3.5-8-5.2-12.8-5.2
			c-4,0-7.3,1.2-9.9,3.6c-2.6,2.4-3.8,5.4-3.8,8.8c0,2.2,0.5,4.1,1.5,5.7c1,1.6,2.4,3,4.4,4c1.9,1,5.6,2.1,11,3.3
			c7.5,1.6,12.8,3.3,15.9,5c3,1.7,5.3,3.8,6.8,6.3c1.5,2.5,2.2,5.5,2.2,9c0,6.1-2.1,11.2-6.2,15.2c-4.1,4-9.4,6-15.9,6
			c-7,0-13.1-2.3-18.2-6.8l-5.2,6.3h-3.3V382h3.3c1.3,7.2,4.2,13,8.6,17.1c4.5,4.2,9.5,6.3,15.1,6.3c4.5,0,8.2-1.3,11.1-4
			c2.9-2.7,4.3-5.9,4.3-9.7c0-2.2-0.5-4.1-1.6-5.7c-1.1-1.6-2.8-3-5.1-4.1c-2.3-1.1-6.9-2.5-13.7-4.1c-7.5-1.8-12.6-3.8-15.3-6
			c-3.8-3.1-5.7-7.5-5.7-13.2c0-6,1.9-10.8,5.7-14.6c3.8-3.8,8.7-5.7,14.6-5.7c2.8,0,5.5,0.5,8.1,1.5
			C397.3,340.8,400,342.5,402.7,344.8z" />
			<path class="st0"
				d="M448.1,339.7h33.4c7.6,0,13.3,1.7,17.3,5.1c4,3.4,6,7.9,6,13.4c0,5.5-1.8,9.7-5.5,12.6c-5,4-11.2,6-18.6,6
			h-12.1V400c0,1.3,0.3,2.3,1,2.9c0.9,0.7,2,1.1,3.4,1.1h7.7v3.4h-32.6V404h6.8c1.3,0,2.3-0.3,3-0.8c0.6-0.5,0.9-1.3,0.9-2.2v-54
			c0-1.4-0.4-2.4-1.2-3c-0.8-0.6-2.3-0.9-4.5-0.9h-5V339.7z M468.6,373.5h9.2c5.8,0,10-1.2,12.6-3.6c2.6-2.4,3.9-6.4,3.9-12
			c0-3.9-0.6-6.9-1.7-9c-1.2-2.1-2.9-3.6-5.1-4.7c-2.2-1-5.9-1.5-11-1.5c-3.4,0-5.5,0.3-6.4,1c-0.9,0.6-1.3,1.8-1.3,3.3V373.5z" />
			<path class="st0" d="M510,339.7h31.4v3.4h-7.5c-1.2,0-2.1,0.3-2.6,0.9c-0.6,0.6-0.8,1.6-0.8,3v53.5c0,1.3,0.4,2.2,1.1,2.7
			c0.7,0.5,2.2,0.8,4.3,0.8h9.5c5.1,0,9.2-1.7,12.4-5.1c3.2-3.4,5.6-9.2,7-17.6h3.2l-1.6,26.1H510V404h5.5c1.9,0,3.2-0.4,4-1.1
			c0.8-0.7,1.1-1.9,1.1-3.5v-52.9c0-1.1-0.3-2-1-2.6c-0.6-0.6-1.6-0.9-2.8-0.9H510V339.7z" />
			<path class="st0"
				d="M602.4,338.3h3.1l24.3,62c1,2.5,3,3.8,6,3.8h2.1v3.4h-27V404h2.2c2.8,0,4.8-0.3,6-0.9c0.8-0.4,1.2-1.1,1.2-2
			c0-0.5-0.1-1.1-0.3-1.6l-5.6-14.4h-26.8l-3.1,8.2c-0.8,2.2-1.2,3.9-1.2,5.2c0,1.5,0.7,2.8,2.1,3.8c1.4,1.1,3.4,1.6,6.1,1.6h2.3
			v3.4H569V404c2.6,0,4.7-0.6,6.2-1.7c1.5-1.1,2.9-3.3,4.2-6.5L602.4,338.3z M601.1,351.3l-12.2,30.2h23.9L601.1,351.3z" />
			<path class="st0" d="M644.3,339.7h46.1v3.4L651.7,404h14.7c4.2,0,7.7-0.7,10.4-2.1c2.7-1.4,4.9-3.4,6.5-6.2
			c1.7-2.7,3.2-7.3,4.6-13.8h3.2l-1.2,25.4h-49v-3.1l39.1-61.2h-14c-3.8,0-6.8,0.4-8.9,1.3c-2.9,1.2-5.2,3.3-7,6.4
			c-1.8,3.1-3.1,7.2-3.8,12.3H643L644.3,339.7z" />
			<path class="st0" d="M727.5,338.3h3.1l24.3,62c1,2.5,3,3.8,6,3.8h2.1v3.4h-27V404h2.2c2.8,0,4.8-0.3,6-0.9c0.8-0.4,1.2-1.1,1.2-2
			c0-0.5-0.1-1.1-0.3-1.6l-5.6-14.4h-26.8l-3.1,8.2c-0.8,2.2-1.2,3.9-1.2,5.2c0,1.5,0.7,2.8,2.1,3.8c1.4,1.1,3.4,1.6,6.1,1.6h2.3
			v3.4H694V404c2.6,0,4.7-0.6,6.2-1.7c1.5-1.1,2.9-3.3,4.2-6.5L727.5,338.3z M726.2,351.3L714,381.5h23.9L726.2,351.3z" />
		</g>
	</g>
</svg>