<svg xmlns="http://www.w3.org/2000/svg" width="11" height="10" viewBox="0 0 11 10">
  <defs>
    <style>
      .cls-1 {
        fill: #b49c68;
        fill-rule: evenodd;
      }
    </style>
  </defs>
  <path id="Forma_1" data-name="Forma 1" class="cls-1" d="M415.859,43.868a0.473,0.473,0,0,0-.043-0.707L410.9,39.112a0.642,0.642,0,0,0-.8.009l-4.931,4.256a0.471,0.471,0,0,0-.023.706l0.123,0.121a0.563,0.563,0,0,0,.74.053l0.369-.311V48.5a0.521,0.521,0,0,0,.536.5h1.922a0.521,0.521,0,0,0,.536-0.5V45.313h2.451V48.5a0.491,0.491,0,0,0,.5.5h2.037a0.522,0.522,0,0,0,.537-0.5V44.011l0.227,0.188a0.5,0.5,0,0,0,.588-0.187Z" transform="translate(-405 -39)"/>
</svg>
