<svg xmlns="http://www.w3.org/2000/svg" width="11" height="10" viewBox="0 0 11 10">
  <defs>
    <style>
      .cls-1 {
        fill: #17a8e5;
        fill-rule: evenodd;
      }
    </style>
  </defs>
  <path id="Forma_1" data-name="Forma 1" class="cls-1" d="M234.859,307.867a0.472,0.472,0,0,0-.043-0.706l-4.913-4.05a0.643,0.643,0,0,0-.8.009l-4.931,4.257a0.471,0.471,0,0,0-.023.7l0.123,0.121a0.563,0.563,0,0,0,.74.054l0.369-.311v4.55a0.52,0.52,0,0,0,.536.5h1.922a0.52,0.52,0,0,0,.536-0.5v-3.183h2.451V312.5a0.491,0.491,0,0,0,.5.5h2.037a0.522,0.522,0,0,0,.537-0.5V308.01l0.227,0.188a0.5,0.5,0,0,0,.588-0.186Z" transform="translate(-224 -303)"/>
</svg>
