<svg xmlns="http://www.w3.org/2000/svg" width="15" height="14" viewBox="0 0 15 14">
  <defs>
    <style>
      .cls-1 {
        fill: #fff;
        fill-rule: evenodd;
      }
    </style>
  </defs>
  <path id="Forma_1" data-name="Forma 1" class="cls-1" d="M1090.38,100.99a11.966,11.966,0,0,1-.45,1.422,9.725,9.725,0,0,1-3.62,4.5,4.378,4.378,0,0,0,.82.085,3.521,3.521,0,0,0,1.86-.51c2.07-1.276,3.01-4.864,3.01-4.864A5.712,5.712,0,0,0,1090.38,100.99Zm-11.31,1.421a11.951,11.951,0,0,1-.45-1.421,5.712,5.712,0,0,0-1.62.636s0.94,3.588,3.01,4.864a3.521,3.521,0,0,0,1.86.51,4.378,4.378,0,0,0,.82-0.085A9.723,9.723,0,0,1,1079.07,102.411Zm7.42,2.664a8.288,8.288,0,0,0,2.53-3.429c1.39-3.5.49-8.038,0.49-8.038a8.159,8.159,0,0,0-2.6,1.743,13.35,13.35,0,0,1,.75,4.311A13.981,13.981,0,0,1,1086.49,105.075Zm-3.98,0a13.981,13.981,0,0,1-1.17-5.413,13.35,13.35,0,0,1,.75-4.311,8.159,8.159,0,0,0-2.6-1.743s-0.9,4.541.49,8.038A8.288,8.288,0,0,0,1082.51,105.075ZM1084.5,93a11.528,11.528,0,0,0,0,13.324A11.528,11.528,0,0,0,1084.5,93Z" transform="translate(-1077 -93)"/>
</svg>
