<svg width="20" height="20" viewBox="0 0 20 20" fill="none" xmlns="http://www.w3.org/2000/svg">
<g clip-path="url(#clip0)">
<path d="M4.45551 11.5462C2.65894 11.5462 1.20253 10.0898 1.20253 8.29326C1.20253 6.49669 2.65894 5.04028 4.45551 5.04028C6.25209 5.04028 7.7085 6.49669 7.7085 8.29326C7.7085 10.0898 6.25209 11.5462 4.45551 11.5462Z" fill="#B49C68"/>
<path d="M11.4626 8.90043L15.5358 11.8183C15.3595 11.7821 15.1656 11.7599 14.9493 11.7599C13.9731 11.7599 13.432 12.1931 13.0739 12.4798C12.8116 12.69 12.7232 12.7607 12.4495 12.7607C12.1758 12.7607 12.0875 12.6899 11.8251 12.4798C11.467 12.1931 10.9259 11.7599 9.9496 11.7599C8.97341 11.7599 8.43227 12.1931 8.07414 12.4798C7.81175 12.69 7.72329 12.7607 7.4496 12.7607C7.17595 12.7607 7.08753 12.6899 6.82514 12.4798C6.70583 12.3843 6.56549 12.2726 6.39607 12.1659L9.24424 7.3531L13.1358 4.44849L17.5816 5.70958L18.1409 8.27477L13.5175 7.36665L11.4626 8.90043Z" fill="#B49C68"/>
<path d="M1.87555 13.2694C2.13794 13.4795 2.22648 13.5503 2.50025 13.5503C2.77402 13.5503 2.86249 13.4795 3.12495 13.2694C3.483 12.9828 4.02422 12.5496 5.0005 12.5496C5.97678 12.5496 6.51788 12.9828 6.87597 13.2694C7.13828 13.4795 7.22675 13.5503 7.50043 13.5503C7.77424 13.5503 7.86251 13.4795 8.12497 13.2694C8.48302 12.9828 9.02416 12.5496 10.0004 12.5496C10.9767 12.5496 11.5178 12.9828 11.8759 13.2694C12.1382 13.4795 12.2266 13.5503 12.5003 13.5503C12.774 13.5503 12.8624 13.4795 13.1247 13.2694C13.4828 12.9828 14.0239 12.5496 15.0001 12.5496C15.9764 12.5496 16.5175 12.9828 16.8756 13.2694C17.138 13.4795 17.2264 13.5503 17.5001 13.5503C17.7738 13.5503 17.8622 13.4795 18.1246 13.2694C18.4826 12.9828 19.0238 12.5496 20 12.5496V14.551C19.7263 14.551 19.6379 14.6218 19.3755 14.8318C19.0175 15.1186 18.4763 15.5517 17.5001 15.5517C16.5238 15.5517 15.9827 15.1186 15.6246 14.8318C15.3623 14.6217 15.2739 14.551 15.0001 14.551C14.7265 14.551 14.6381 14.6218 14.3757 14.8318C14.0177 15.1186 13.4765 15.5517 12.5003 15.5517C11.5241 15.5517 10.983 15.1186 10.6249 14.8318C10.3625 14.6217 10.2741 14.551 10.0004 14.551C9.72664 14.551 9.63829 14.6218 9.3759 14.8318C9.01785 15.1186 8.47671 15.5517 7.50035 15.5517C6.52419 15.5517 5.98306 15.1186 5.62496 14.8318C5.36258 14.6217 5.27419 14.551 5.00042 14.551C4.72666 14.551 4.63819 14.6219 4.3758 14.8318C4.01775 15.1186 3.47653 15.5517 2.50017 15.5517C1.52381 15.5517 0.982712 15.1186 0.62462 14.8318C0.362153 14.6218 0.273687 14.551 -7.95649e-05 14.551V12.5496C0.97628 12.5495 1.51742 12.9828 1.87555 13.2694Z" fill="#B49C68"/>
</g>
<defs>
<clipPath id="clip0">
<rect width="20" height="20" fill="white" transform="matrix(-1 0 0 1 20 0)"/>
</clipPath>
</defs>
</svg>
