<svg id="Группа_2" data-name="Группа 2" xmlns="http://www.w3.org/2000/svg" width="34" height="32" viewBox="0 0 34 32">
  <defs>
    <style>
      .cls-1 {
        fill: #fff;
      }

      .cls-2 {
        fill: #4e5d75;
        fill-rule: evenodd;
      }
    </style>
  </defs>
  <rect id="Rounded_Rectangle_20_copy_2" data-name="Rounded Rectangle 20 copy 2" class="cls-1" width="34" height="32" rx="5" ry="5"/>
  <path class="cls-2" d="M278.31,4476h13.379a2.317,2.317,0,0,1,2.31,2.31v13.38a2.317,2.317,0,0,1-2.31,2.31H278.31a2.318,2.318,0,0,1-2.311-2.31v-13.38A2.318,2.318,0,0,1,278.31,4476Zm10.8,2a0.809,0.809,0,0,0-.81.81v1.94a0.816,0.816,0,0,0,.81.81h2.034a0.816,0.816,0,0,0,.811-0.81v-1.94a0.81,0.81,0,0,0-.811-0.81h-2.034Zm2.852,5.61h-1.583a5.285,5.285,0,0,1,.231,1.55,5.6,5.6,0,0,1-11.191,0,5.285,5.285,0,0,1,.232-1.55H278v7.6a0.717,0.717,0,0,0,.715.72H291.25a0.716,0.716,0,0,0,.714-0.72v-7.6Zm-6.948-2.15a3.5,3.5,0,1,0,3.616,3.5A3.554,3.554,0,0,0,285.016,4481.46Z" transform="translate(-268 -4469)"/>
</svg>
