<svg xmlns="http://www.w3.org/2000/svg" width="18" height="18" viewBox="0 0 18 18">
  <defs>
    <style>
      .cls-1 {
        fill: #fff;
        fill-rule: evenodd;
      }
    </style>
  </defs>
  <path class="cls-1" d="M882.31,120h13.379a2.317,2.317,0,0,1,2.31,2.31v13.38a2.316,2.316,0,0,1-2.31,2.31H882.31a2.317,2.317,0,0,1-2.311-2.31v-13.38A2.318,2.318,0,0,1,882.31,120Zm10.8,2a0.813,0.813,0,0,0-.81.812v1.939a0.813,0.813,0,0,0,.81.811h2.034a0.813,0.813,0,0,0,.811-0.811v-1.939a0.814,0.814,0,0,0-.811-0.812h-2.034Zm2.852,5.612h-1.583a5.285,5.285,0,0,1,.231,1.547,5.6,5.6,0,0,1-11.191,0,5.285,5.285,0,0,1,.232-1.547H882v7.605a0.716,0.716,0,0,0,.715.715H895.25a0.715,0.715,0,0,0,.714-0.715v-7.605Zm-6.948-2.152a3.5,3.5,0,1,0,3.616,3.5A3.56,3.56,0,0,0,889.016,125.457Z" transform="translate(-880 -120)"/>
</svg>
