<svg xmlns="http://www.w3.org/2000/svg" viewBox="0 0 16 14">
  <defs>
    <style>
      .cls-1 {
        fill: #9aa2b4;
        fill-rule: evenodd;
      }
    </style>
  </defs>
  <path id="Forma_1" data-name="Forma 1" class="cls-1" d="M403.125,2420.9h-0.031v-4.83a1.983,1.983,0,0,0-1.875-2.07H392.75a1.983,1.983,0,0,0-1.875,2.07v4.83a1.974,1.974,0,0,0-1.875,2.06v3.8h1.25V2428h1.25v-1.24h11V2428h1.25v-1.24H405v-3.8A1.974,1.974,0,0,0,403.125,2420.9Zm-11-4.83a0.661,0.661,0,0,1,.625-0.69h8.469a0.661,0.661,0,0,1,.624.69v4.83h-1.187v-1.04a1.983,1.983,0,0,0-1.875-2.07h-3.625a1.983,1.983,0,0,0-1.875,2.07v1.04h-1.156v-4.83Zm7.281,3.79v1.04h-4.875v-1.04a0.661,0.661,0,0,1,.625-0.69h3.625A0.661,0.661,0,0,1,399.406,2419.86Zm4.344,5.52h-13.5v-2.42a0.652,0.652,0,0,1,.625-0.68h12.25a0.652,0.652,0,0,1,.625.68v2.42Z" transform="translate(-389 -2414)"/>
</svg>
