<svg width="15" height="22" viewBox="0 0 15 22" fill="none" xmlns="http://www.w3.org/2000/svg">
<path fill-rule="evenodd" clip-rule="evenodd" d="M8.275 17.206V20.446H12.28C12.714 20.446 13.054 20.787 13.054 21.223C13.054 21.659 12.714 22 12.28 22H2.399C1.965 22 1.625 21.659 1.625 21.223C1.625 20.787 1.965 20.446 2.399 20.446H6.725V17.206C2.947 16.808 0 13.605 0 9.721C0 9.285 0.34 8.944 0.775 8.944C1.209 8.944 1.549 9.285 1.549 9.721C1.549 13.018 4.213 15.69 7.5 15.69C10.787 15.69 13.451 13.018 13.451 9.721C13.451 9.285 13.791 8.944 14.225 8.944C14.66 8.944 15 9.285 15 9.721C15 13.605 12.053 16.808 8.275 17.206ZM7.5 14.989C4.61 14.989 2.267 12.62 2.267 9.721V9.209V5.249C2.267 2.35 4.61 0 7.5 0C10.39 0 12.733 2.35 12.733 5.249V9.209V9.721C12.733 12.62 10.39 14.989 7.5 14.989ZM11.222 5.249C11.222 3.202 9.559 1.535 7.519 1.535C5.479 1.535 3.816 3.202 3.816 5.249V9.209C3.816 11.256 5.479 12.923 7.519 12.923C9.559 12.923 11.222 11.256 11.222 9.209V5.249Z" fill="#9AA2B4"/>
</svg>
