<svg viewBox="0 0 26 18" fill="none" xmlns="http://www.w3.org/2000/svg">
<path fill-rule="evenodd" clip-rule="evenodd" d="M22.685 16.032V16.825C22.685 17.257 22.329 17.608 21.892 17.608H21.086C20.649 17.608 20.294 17.257 20.294 16.825V16.056H6.01003V16.825C6.01103 17.257 5.65603 17.608 5.21803 17.608H4.45303C4.01603 17.608 3.66103 17.257 3.66103 16.825V16.034C2.10303 15.921 0.839032 14.774 0.583032 13.282C0.525032 13.174 0.483032 13.055 0.483032 12.923V8.25C0.483032 6.965 1.57203 5.879 2.86203 5.874V3.644C2.86203 1.88 4.36903 0.389999 6.15203 0.389999H20.2C22.004 0.389999 23.472 1.85 23.472 3.644V5.873H23.572C24.807 5.873 25.851 6.927 25.851 8.175V12.736C25.851 14.485 24.45 15.906 22.685 16.032ZM21.887 3.644C21.887 2.729 21.114 1.957 20.2 1.957H6.15203C5.22803 1.957 4.44703 2.729 4.44703 3.644V6.015C5.35603 6.343 6.03203 7.229 6.03203 8.25V10.573H20.302V8.175C20.302 7.162 20.982 6.288 21.887 5.99V3.644ZM24.265 8.175C24.265 7.804 23.921 7.44 23.572 7.44H22.545C22.206 7.44 21.887 7.797 21.887 8.175V11.356C21.887 11.789 21.532 12.14 21.094 12.14H5.24003C4.80203 12.14 4.44703 11.789 4.44703 11.356V8.25C4.44703 7.819 4.09703 7.44 3.69703 7.44H2.87003C2.45803 7.44 2.06903 7.834 2.06903 8.25V12.52C2.08803 12.588 2.11203 12.655 2.11203 12.729C2.11203 13.7 2.91703 14.49 3.90603 14.49H22.438C23.446 14.49 24.265 13.703 24.265 12.736V8.175Z" fill="white"/>
</svg>
