<svg xmlns="http://www.w3.org/2000/svg" viewBox="0 0 14 16">
  <defs>
    <style>
      .cls-1 {
        fill: #9aa2b4;
        fill-rule: evenodd;
      }
    </style>
  </defs>
  <path id="Forma_1" data-name="Forma 1" class="cls-1" d="M317.156,2413.43a0.217,0.217,0,0,0-.218-0.11A18.384,18.384,0,0,0,314,2413c-0.435,0-1.632,0-1.958.75a0.5,0.5,0,0,0,.218.74l3.109,1.48-0.988,1.94h-7.56a0.791,0.791,0,0,0-.544,1.38l3.481,3.42a4.474,4.474,0,0,0,2.175,1v4.22h-2.5a0.514,0.514,0,0,0-.544.54,0.507,0.507,0,0,0,.544.53h5.983a0.506,0.506,0,0,0,.544-0.53,0.514,0.514,0,0,0-.544-0.54h-2.393v-4.22a3.245,3.245,0,0,0,1.958-1l3.481-3.42a0.656,0.656,0,0,0,.217-0.85,0.812,0.812,0,0,0-.761-0.53h-2.284l0.744-1.46,2.845,1.35h0.327c0.108-.11.217-0.21,0.326-0.32C320.528,2416.31,318.461,2414.39,317.156,2413.43Zm-2.72,8.53a2.876,2.876,0,0,1-3.807,0l-0.653-.64h5.113Zm1.74-1.71h-7.288l-1.3-1.28h9.9ZM314,2414.07a14.188,14.188,0,0,1,2.719.32,14.645,14.645,0,0,1,1.85,1.81Z" transform="translate(-306 -2413)"/>
</svg>
