<svg width="20" height="17" viewBox="0 0 20 17" fill="none" xmlns="http://www.w3.org/2000/svg">
<path fill-rule="evenodd" clip-rule="evenodd" d="M17.952 16.995H16.327V8.82401C16.319 8.77101 16.311 8.719 16.311 8.665C16.311 5.122 13.479 2.241 9.99805 2.241C6.51705 2.241 3.68505 5.122 3.68505 8.665C3.68505 8.705 3.67805 8.74401 3.67305 8.78401V16.995H2.04805C0.916047 16.995 -0.00195312 16.036 -0.00195312 14.854V10.572C-0.00195312 9.598 0.621047 8.777 1.47405 8.518C1.55205 3.811 5.34505 0.00500488 9.99905 0.00500488C14.651 0.00500488 18.444 3.81 18.522 8.516C19.376 8.775 20.002 9.596 20.002 10.572V14.854C20.002 16.036 19.084 16.995 17.952 16.995ZM5.10305 8.58C5.51105 8.58 5.84205 8.914 5.84205 9.325V16.241C5.84205 16.653 5.51105 16.987 5.10305 16.987C4.69505 16.987 4.36505 16.653 4.36505 16.241V9.325C4.36505 8.913 4.69505 8.58 5.10305 8.58ZM14.898 8.58C15.305 8.58 15.636 8.914 15.636 9.325V16.241C15.636 16.653 15.305 16.987 14.898 16.987C14.49 16.987 14.16 16.653 14.16 16.241V9.325C14.16 8.913 14.49 8.58 14.898 8.58Z" fill="white"/>
</svg>
