<svg xmlns="http://www.w3.org/2000/svg" viewBox="0 0 12 16">
  <defs>
    <style>
      .cls-1 {
        fill: #fff;
        fill-rule: evenodd;
      }
    </style>
  </defs>
  <path id="Forma_1" data-name="Forma 1" class="cls-1" d="M740.715,2418.8h-9.431a1.281,1.281,0,0,0-1.284,1.27v7.66a1.278,1.278,0,0,0,1.284,1.27h9.432a1.281,1.281,0,0,0,1.284-1.27v-7.66A1.278,1.278,0,0,0,740.715,2418.8Zm0.57,8.5H730.714v-7.8h10.571v7.8ZM736.15,2413h-0.3a4.121,4.121,0,0,0-4.135,4.1v2.26h1.714v-2.26a2.415,2.415,0,0,1,2.421-2.4h0.3a2.415,2.415,0,0,1,2.421,2.4v1h1.714v-1A4.122,4.122,0,0,0,736.15,2413Z" transform="translate(-730 -2413)"/>
</svg>
