<svg xmlns="http://www.w3.org/2000/svg" width="24" height="24" viewBox="0 0 24 24">
  <defs>
    <style>
      .cls-1 {
        fill: #9aa2b4;
        fill-rule: evenodd;
      }
    </style>
  </defs>
  <path class="cls-1" d="M304.092,585.5c-1.661-1.39-6.549-5.49-8.789-7.49,1.214-1.113,2.912-2.768,4.564-4.378,1.891-1.843,3.677-3.585,4.487-4.269a1.837,1.837,0,0,0-.3-3,1.8,1.8,0,0,0-1.849.045c-1.842,1.144-9.209,6.438-9.209,7.58a4.425,4.425,0,0,1-.134,1.182,5.866,5.866,0,0,1-.866-2.183c0-.712-2.418-3.031-7.186-6.894a0.566,0.566,0,0,0-.711.078,0.5,0.5,0,0,0,0,.708l4.75,4.753a0.5,0.5,0,0,1,0,.708,0.514,0.514,0,0,1-.707,0l-4.75-4.754a0.5,0.5,0,0,0-.707,0l-0.085.087a0.5,0.5,0,0,0,0,.707l4.75,4.753a0.5,0.5,0,0,1,0,.708,0.514,0.514,0,0,1-.707,0l-4.751-4.753a0.556,0.556,0,0,0-.75.043,0.5,0.5,0,0,0-.035.668c3.86,4.771,6.178,7.191,6.889,7.191a6.619,6.619,0,0,1,2.589,1.118c-2.217,1.973-6.736,5.768-8.68,7.395a2.545,2.545,0,1,0,3.584,3.586c1.671-2,5.579-6.658,7.507-8.819,1.99,2.231,6.114,7.152,7.508,8.821A2.545,2.545,0,1,0,304.092,585.5Z" transform="translate(-281 -566)"/>
</svg>
