<svg xmlns="http://www.w3.org/2000/svg" viewBox="0 0 12 16">
  <defs>
    <style>
      .cls-1 {
        fill: #fff;
        fill-rule: evenodd;
      }
    </style>
  </defs>
  <path class="cls-1" d="M1184.82,2413a4.151,4.151,0,0,0-3.61,2.13,4.317,4.317,0,0,0-4.21,4.37,0.715,0.715,0,0,0,.71.72h7.05a0.715,0.715,0,0,0,.71-0.72,4.365,4.365,0,0,0-2.73-4.08,2.76,2.76,0,0,1,2.08-.97,2.816,2.816,0,0,1,2.77,2.86v10.96a0.715,0.715,0,0,0,.7.73,0.724,0.724,0,0,0,.71-0.73v-10.96A4.246,4.246,0,0,0,1184.82,2413Zm-0.85,5.77h-5.47A2.806,2.806,0,0,1,1183.97,2418.77Zm-5.56,6.79a0.707,0.707,0,0,0-.7.72v0.97a0.709,0.709,0,0,0,.7.73,0.717,0.717,0,0,0,.71-0.73v-0.97A0.715,0.715,0,0,0,1178.41,2425.56Zm2.83,0a0.715,0.715,0,0,0-.71.72v0.97a0.717,0.717,0,0,0,.71.73,0.709,0.709,0,0,0,.7-0.73v-0.97A0.707,0.707,0,0,0,1181.24,2425.56Zm2.82,0a0.715,0.715,0,0,0-.71.72v0.97a0.717,0.717,0,0,0,.71.73,0.709,0.709,0,0,0,.7-0.73v-0.97A0.707,0.707,0,0,0,1184.06,2425.56Zm-5.65-3.88a0.709,0.709,0,0,0-.7.73v0.97a0.707,0.707,0,0,0,.7.72,0.715,0.715,0,0,0,.71-0.72v-0.97A0.717,0.717,0,0,0,1178.41,2421.68Zm2.83,0a0.717,0.717,0,0,0-.71.73v0.97a0.715,0.715,0,0,0,.71.72,0.707,0.707,0,0,0,.7-0.72v-0.97A0.709,0.709,0,0,0,1181.24,2421.68Zm2.82,0a0.717,0.717,0,0,0-.71.73v0.97a0.715,0.715,0,0,0,.71.72,0.707,0.707,0,0,0,.7-0.72v-0.97A0.709,0.709,0,0,0,1184.06,2421.68Z" transform="translate(-1177 -2413)"/>
</svg>
