<svg xmlns="http://www.w3.org/2000/svg" viewBox="0 0 16 12">
  <defs>
    <style>
      .cls-1 {
        fill: #9aa2b4;
        fill-rule: evenodd;
      }
    </style>
  </defs>
  <path id="Forma_1" data-name="Forma 1" class="cls-1" d="M264.815,2418.18a11.194,11.194,0,0,0-15.631,0,0.571,0.571,0,0,0,0,.84l0.862,0.84a0.6,0.6,0,0,0,.861,0,8.774,8.774,0,0,1,12.185,0,0.606,0.606,0,0,0,.862,0l0.861-.84a0.539,0.539,0,0,0,.185-0.42A0.463,0.463,0,0,0,264.815,2418.18ZM257,2419.8a6.069,6.069,0,0,0-4.308,1.74,0.57,0.57,0,0,0,0,.84l0.862,0.84a0.6,0.6,0,0,0,.861,0A3.677,3.677,0,0,1,257,2422.2a3.96,3.96,0,0,1,2.584,1.02,0.606,0.606,0,0,0,.862,0l0.861-.84a0.569,0.569,0,0,0,0-.84A6.065,6.065,0,0,0,257,2419.8Zm0,4.8a1.2,1.2,0,1,1-1.231,1.2A1.217,1.217,0,0,1,257,2424.6Z" transform="translate(-249 -2415)"/>
</svg>
