<svg xmlns="http://www.w3.org/2000/svg" viewBox="0 0 16 16">
  <defs>
    <style>
      .cls-1 {
        fill: #9aa2b4;
        fill-rule: evenodd;
      }
    </style>
  </defs>
  <path id="Forma_1" data-name="Forma 1" class="cls-1" d="M292.408,2416.81H286.12l2.974-2.85a0.547,0.547,0,0,0,0-.8,0.613,0.613,0,0,0-.837,0L285,2416.27l-2.294-2.11a0.613,0.613,0,0,0-.837,0,0.558,0.558,0,0,0,0,.81l2.011,1.84h-6.288a0.576,0.576,0,0,0-.592.56v8.5a0.578,0.578,0,0,0,.592.57h4.97v0.45l-2.391,1.03a0.547,0.547,0,0,0-.3.74,0.6,0.6,0,0,0,.541.34,0.689,0.689,0,0,0,.242-0.05l2.625-1.13h3.438l2.625,1.13a0.689,0.689,0,0,0,.242.05,0.6,0.6,0,0,0,.541-0.34,0.547,0.547,0,0,0-.3-0.74l-2.391-1.03v-0.45h4.97a0.578,0.578,0,0,0,.592-0.57v-8.5A0.576,0.576,0,0,0,292.408,2416.81Zm-6.154,9.88h-2.508v-0.25h2.508v0.25Zm5.562-1.38H278.184v-7.37h13.632v7.37Z" transform="translate(-277 -2413)"/>
</svg>
