<svg width="22" height="22" viewBox="0 0 22 22" fill="none" xmlns="http://www.w3.org/2000/svg">
<g clip-path="url(#clip0)">
<path fill-rule="evenodd" clip-rule="evenodd" d="M21.084 20.004H19.036V21.083C19.036 21.591 18.628 22 18.12 22C17.613 22 17.204 21.591 17.204 21.083V20.004H4.796V21.083C4.796 21.591 4.387 22 3.88 22C3.373 22 2.964 21.591 2.964 21.083V20.004H0.916C0.409 20.004 0 19.594 0 19.086V10.62C0 10.111 0.409 9.702 0.916 9.702H3.22C3.862 7.71 5.735 6.267 7.935 6.267C10.136 6.267 12.004 7.71 12.65 9.702H21.088C21.596 9.702 22.005 10.116 22 10.624V19.086C22 19.594 21.591 20.004 21.084 20.004ZM7.935 8.106C6.215 8.106 4.814 9.509 4.814 11.231C4.814 12.953 6.215 14.356 7.935 14.356C9.655 14.356 11.056 12.953 11.056 11.231C11.056 9.509 9.655 8.106 7.935 8.106ZM20.163 11.541H12.875C12.718 14.136 10.558 16.195 7.931 16.195C5.304 16.195 3.148 14.136 2.986 11.541H1.832V18.169H20.163V11.541ZM11.339 4.14C11.698 4.495 11.712 5.075 11.357 5.44C11.177 5.629 10.571 5.939 10.059 5.462C8.865 4.352 6.983 4.325 5.816 5.462C5.452 5.813 4.868 5.804 4.518 5.44C4.163 5.075 4.172 4.495 4.536 4.14C6.413 2.324 9.462 2.324 11.339 4.14ZM12.103 3.475C9.808 1.24 6.067 1.245 3.772 3.475C3.408 3.83 2.825 3.821 2.483 3.452C2.129 3.088 2.138 2.508 2.501 2.153C5.501 -0.755998 10.383 -0.755998 13.382 2.153C13.742 2.508 13.755 3.088 13.4 3.452C13.221 3.641 12.61 3.969 12.103 3.475Z" fill="#9AA2B4"/>
</g>
<defs>
<clipPath id="clip0">
<rect width="22" height="22" fill="white"/>
</clipPath>
</defs>
</svg>
