<svg width="24" height="24" viewBox="0 0 24 24" fill="none" xmlns="http://www.w3.org/2000/svg">
<g clip-path="url(#clip0)">
<path fill-rule="evenodd" clip-rule="evenodd" d="M23.0919 19.504C21.4309 18.114 16.5429 14.014 14.3029 12.014C15.5169 10.901 17.2149 9.246 18.8669 7.636C20.7579 5.793 22.5439 4.051 23.3539 3.367C23.7649 3.02 23.9999 2.511 23.9999 1.971C23.9999 1.293 23.6479 0.692996 23.0579 0.363996C22.4709 0.0379961 21.7799 0.0539961 21.2089 0.408996C19.3669 1.553 11.9999 6.847 11.9999 7.989C11.9999 8.325 11.9859 8.721 11.8659 9.171C11.3159 8.225 10.9999 7.359 10.9999 6.988C10.9999 6.276 8.58195 3.957 3.81395 0.0939961C3.61695 -0.0660039 3.28495 -0.00800388 3.10295 0.171996C2.90795 0.367996 2.90795 0.683996 3.10295 0.879996L7.85295 5.633C8.04795 5.828 8.04795 6.146 7.85295 6.341C7.66395 6.529 7.33595 6.529 7.14595 6.341L2.39595 1.587C2.20095 1.392 1.88495 1.392 1.68895 1.587L1.60395 1.674C1.40795 1.869 1.40795 2.186 1.60395 2.381L6.35395 7.134C6.54795 7.329 6.54795 7.647 6.35395 7.842C6.16395 8.03 5.83595 8.03 5.64695 7.842L0.895947 3.089C0.701947 2.894 0.342947 2.937 0.145947 3.132C-0.0350535 3.312 -0.0500535 3.601 0.110947 3.8C3.97095 8.571 6.28895 10.991 6.99995 10.991C7.42395 10.991 8.49195 11.402 9.58895 12.109C7.37195 14.082 2.85295 17.877 0.908947 19.504C0.330947 19.987 -5.34641e-05 20.698 -5.34641e-05 21.454C-5.34641e-05 22.858 1.14095 24 2.54395 24C3.29895 24 4.00995 23.668 4.49295 23.09C6.16395 21.091 10.0719 16.432 11.9999 14.271C13.9899 16.502 18.1139 21.423 19.5079 23.092C19.9909 23.669 20.7009 24 21.4559 24C22.8589 24 23.9999 22.858 23.9999 21.454C23.9999 20.698 23.6689 19.987 23.0919 19.504Z" fill="white"/>
</g>
<defs>
<clipPath id="clip0">
<rect width="24" height="24" fill="white"/>
</clipPath>
</defs>
</svg>
