<svg xmlns="http://www.w3.org/2000/svg"  viewBox="0 0 16.03 16">
  <defs>
    <style>
      .cls-1 {
        fill: #fff;
        fill-rule: evenodd;
      }
    </style>
  </defs>
  <path id="Forma_1" data-name="Forma 1" class="cls-1" d="M1020.84,2415.1a7.392,7.392,0,0,0-5.21-2.1,0.566,0.566,0,1,0,0,1.13,6.229,6.229,0,0,1,4.38,1.77,5.855,5.855,0,0,1,1.82,4.26,0.586,0.586,0,0,0,1.17,0A7,7,0,0,0,1020.84,2415.1Zm-2.4,5.06a0.57,0.57,0,0,0,.58.56,0.579,0.579,0,0,0,.59-0.56,3.936,3.936,0,0,0-3.98-3.87h0a0.57,0.57,0,1,0,0,1.14A2.771,2.771,0,0,1,1018.44,2420.16Zm-1.29,2.89a4.5,4.5,0,0,0-2.57.9,0.558,0.558,0,0,0,.16.79,2.553,2.553,0,0,0,1.81-.15,0.625,0.625,0,0,1,.53-0.41,2.628,2.628,0,0,1,1.7.92,10,10,0,0,1,.99,1.41c-0.21.6,0.45,0.03,0,.22-0.42.19-1.94,1.18-2.5,0.95-2.09-.82-2.91-0.97-4.42-2.42h0a23.8,23.8,0,0,1-4.52-6.25c-0.22-.54.76-2.05,0.95-2.46,0.21-.43-0.36.23,0.26,0.03a0.634,0.634,0,0,1,.43,0,7.222,7.222,0,0,1,1.97,2.61,0.6,0.6,0,0,1-.42.52,2.444,2.444,0,0,0-.16,1.79c0.19,0.25,1.55-.68,1.82-0.86,0.31-.21-0.02-0.65-0.07-1.51a6.987,6.987,0,0,0-2.73-3.62,1.8,1.8,0,0,0-1.21,0,3.118,3.118,0,0,0-1.95,1.57,2.86,2.86,0,0,0,.03,2.36,17.122,17.122,0,0,0,3.78,5.62c0,0.01.01,0.01,0.01,0.02a18.025,18.025,0,0,0,5.79,3.66,3.627,3.627,0,0,0,1.3.26,2.7,2.7,0,0,0,1.13-.24,3.09,3.09,0,0,0,1.62-1.89,1.681,1.681,0,0,0-.01-1.17A7.159,7.159,0,0,0,1017.15,2423.05Z" transform="translate(-1006.97 -2413)"/>
</svg>
