<svg width="26" height="18" viewBox="0 0 26 18" fill="none" xmlns="http://www.w3.org/2000/svg">
<path fill-rule="evenodd" clip-rule="evenodd" d="M25.084 17.999H0.915C0.41 17.999 0 17.599 0 17.106V9.73701C0 9.24401 0.41 8.84401 0.915 8.84401H2.213C1.765 8.00801 1.51 7.05901 1.51 6.05201C1.51 2.71501 4.293 0.00100708 7.713 0.00100708C11.133 0.00100708 13.915 2.71501 13.915 6.05201C13.915 7.05901 13.66 8.00801 13.213 8.84401H25.084C25.59 8.84401 26 9.24401 26 9.73701V17.106C26 17.599 25.59 17.999 25.084 17.999ZM7.713 1.78701C5.302 1.78701 3.342 3.70001 3.342 6.05201C3.342 7.11901 3.746 8.09501 4.413 8.84401H11.013C11.68 8.09501 12.084 7.11901 12.084 6.05201C12.084 3.70001 10.123 1.78701 7.713 1.78701ZM24.169 10.63H1.831V16.213H24.169V10.63ZM3.936 12.528H11.489C11.995 12.528 12.405 12.928 12.405 13.421C12.405 13.915 11.995 14.315 11.489 14.315H3.936C3.431 14.315 3.021 13.915 3.021 13.421C3.021 12.928 3.431 12.528 3.936 12.528ZM19.042 12.528C19.283 12.528 19.519 12.624 19.689 12.79C19.86 12.956 19.957 13.187 19.957 13.421C19.957 13.656 19.86 13.887 19.689 14.053C19.519 14.219 19.283 14.315 19.042 14.315C18.801 14.315 18.565 14.219 18.395 14.053C18.224 13.887 18.126 13.656 18.126 13.421C18.126 13.187 18.224 12.956 18.395 12.79C18.565 12.624 18.801 12.528 19.042 12.528ZM22.063 12.528C22.304 12.528 22.54 12.624 22.71 12.79C22.881 12.956 22.979 13.187 22.979 13.421C22.979 13.656 22.881 13.887 22.71 14.053C22.54 14.219 22.304 14.315 22.063 14.315C21.822 14.315 21.586 14.219 21.416 14.053C21.245 13.887 21.148 13.656 21.148 13.421C21.148 13.187 21.245 12.956 21.416 12.79C21.586 12.624 21.822 12.528 22.063 12.528ZM7.713 8.20501C6.496 8.20501 5.507 7.23901 5.507 6.05201C5.507 4.86501 6.496 3.90001 7.713 3.90001C8.929 3.90001 9.919 4.86501 9.919 6.05201C9.919 7.23901 8.929 8.20501 7.713 8.20501ZM7.713 5.68601C7.506 5.68601 7.338 5.85101 7.338 6.05201C7.338 6.25401 7.506 6.41801 7.713 6.41801C7.92 6.41801 8.088 6.25401 8.088 6.05201C8.088 5.85101 7.92 5.68601 7.713 5.68601Z" fill="#9AA2B4"/>
</svg>
