<svg xmlns="http://www.w3.org/2000/svg" viewBox="0 0 16.031 16">
  <defs>
    <style>
      .cls-1 {
        fill: #9aa2b4;
        fill-rule: evenodd;
      }
    </style>
  </defs>
  <path id="Forma_1" data-name="Forma 1" class="cls-1" d="M346.841,2415.1a7.4,7.4,0,0,0-5.212-2.1,0.565,0.565,0,1,0,0,1.13,6.252,6.252,0,0,1,4.386,1.77,5.883,5.883,0,0,1,1.817,4.26,0.585,0.585,0,0,0,1.168,0A6.989,6.989,0,0,0,346.841,2415.1Zm-2.4,5.06a0.585,0.585,0,0,0,1.168,0,3.932,3.932,0,0,0-3.977-3.87h0a0.57,0.57,0,1,0,0,1.14A2.77,2.77,0,0,1,344.438,2420.16Zm-1.292,2.89a4.456,4.456,0,0,0-2.561.9,0.558,0.558,0,0,0,.152.79,2.557,2.557,0,0,0,1.812-.15,0.625,0.625,0,0,1,.531-0.41,2.628,2.628,0,0,1,1.7.92,9.716,9.716,0,0,1,.994,1.41c-0.209.6,0.445,0.03,0,.22-0.424.19-1.943,1.18-2.5,0.95-2.085-.82-2.907-0.97-4.414-2.42h0a23.641,23.641,0,0,1-4.519-6.25c-0.227-.54.755-2.05,0.949-2.46,0.205-.43-0.359.23,0.261,0.03a0.62,0.62,0,0,1,.425,0,7.247,7.247,0,0,1,1.975,2.61,0.608,0.608,0,0,1-.426.52,2.449,2.449,0,0,0-.153,1.79c0.182,0.25,1.545-.68,1.812-0.86,0.318-.21-0.02-0.65-0.066-1.51a6.961,6.961,0,0,0-2.733-3.62,1.786,1.786,0,0,0-1.207,0,3.113,3.113,0,0,0-1.949,1.57,2.844,2.844,0,0,0,.03,2.36,17.13,17.13,0,0,0,3.777,5.62,0.212,0.212,0,0,0,.012.02,18.015,18.015,0,0,0,5.788,3.66,3.668,3.668,0,0,0,1.3.26,2.689,2.689,0,0,0,1.124-.24,3.06,3.06,0,0,0,1.622-1.89,1.681,1.681,0,0,0-.006-1.17A7.154,7.154,0,0,0,343.146,2423.05Z" transform="translate(-332.969 -2413)"/>
</svg>
