<svg xmlns="http://www.w3.org/2000/svg" width="16" height="16" viewBox="0 0 16 16">
  <defs>
    <style>
      .cls-1 {
        fill: #fff;
        fill-rule: evenodd;
      }
    </style>
  </defs>
  <path id="Forma_1" data-name="Forma 1" class="cls-1" d="M376.28,2413.94a26.009,26.009,0,0,1-3.343.31,13.074,13.074,0,0,1-2.405-.45,22.81,22.81,0,0,0-5.188-.8,4.338,4.338,0,0,0-2.76,7.69,1.521,1.521,0,0,0,.164.31,16.681,16.681,0,0,1,1.408,6.12,1.875,1.875,0,1,0,3.75,0,16.61,16.61,0,0,0-.309-3.06h0.622v-1.25h-0.9c-0.1-.4-0.208-0.77-0.309-1.1-0.014-.04-0.028-0.08-0.042-0.13a31.441,31.441,0,0,0,3.564-.7,12.88,12.88,0,0,1,2.405-.44,29.082,29.082,0,0,1,3.343.3l0.72,0.11v-7.02Zm-12.03,6.3a3.1,3.1,0,0,1,0-5.79v5.79Zm1.781,7.51a0.626,0.626,0,0,1-.625-0.63,17.294,17.294,0,0,0-1.081-5.55,4.857,4.857,0,0,0,1.019.12c0.114,0,.228-0.01.343-0.01,0.044,0.13.087,0.27,0.129,0.4a17.791,17.791,0,0,1,.84,5.04A0.626,0.626,0,0,1,366.031,2427.75Zm6.031-8.48c-0.533.09-1.148,0.24-1.82,0.4a34.16,34.16,0,0,1-5.742.77v-6.19a34.16,34.16,0,0,1,5.742.77c0.672,0.16,1.287.31,1.82,0.39v3.86Zm3.688,0.14c-0.638-.08-1.594-0.19-2.438-0.22v-3.7c0.844-.02,1.8-0.13,2.438-0.21v4.13Z" transform="translate(-361 -2413)"/>
</svg>
