<svg width="22" height="16" viewBox="0 0 22 16" fill="none" xmlns="http://www.w3.org/2000/svg">
<path fill-rule="evenodd" clip-rule="evenodd" d="M19.886 14.72C19.728 14.948 19.475 15.066 19.223 15.066C19.061 15.066 18.898 15.016 18.754 14.916C18.389 14.656 18.303 14.142 18.56 13.773C19.75 12.083 20.377 10.084 20.377 7.989C20.377 5.894 19.75 3.894 18.56 2.2C18.303 1.831 18.389 1.321 18.754 1.057C19.119 0.797 19.624 0.884 19.886 1.253C21.27 3.225 22 5.552 22 7.989C22 10.425 21.27 12.753 19.886 14.72ZM16.405 12.475C16.243 12.475 16.081 12.425 15.936 12.325C15.571 12.06 15.486 11.55 15.743 11.181C16.396 10.248 16.743 9.145 16.743 7.989C16.743 6.832 16.396 5.73 15.743 4.796C15.486 4.427 15.571 3.917 15.936 3.653C16.302 3.393 16.807 3.48 17.068 3.849C17.92 5.06 18.371 6.49 18.371 7.989C18.371 9.487 17.92 10.917 17.068 12.129C16.91 12.356 16.658 12.475 16.405 12.475ZM12.05 16C11.789 16 11.532 15.927 11.293 15.79C11.27 15.777 11.248 15.763 11.225 15.745L7.1 12.734H3.485C1.564 12.734 0 11.154 0 9.214V6.754C0 4.814 1.564 3.234 3.485 3.234C3.931 3.234 4.296 3.603 4.296 4.054C4.296 4.505 3.931 4.874 3.485 4.874C2.457 4.874 1.623 5.716 1.623 6.754V9.214C1.623 10.252 2.457 11.095 3.485 11.095H7.362C7.529 11.095 7.695 11.15 7.835 11.25L11.947 14.251V1.717L7.637 4.723C7.272 4.978 6.762 4.887 6.51 4.514C6.257 4.145 6.347 3.63 6.717 3.375L11.234 0.223C11.252 0.21 11.27 0.196 11.288 0.187C11.766 -0.0909996 12.334 -0.0909996 12.808 0.187C13.281 0.46 13.565 0.957 13.565 1.512V14.465C13.565 15.016 13.281 15.513 12.808 15.79C12.573 15.932 12.312 16 12.05 16Z" fill="white"/>
</svg>
