<svg xmlns="http://www.w3.org/2000/svg" width="25" height="25" viewBox="0 0 25 25">
  <defs>
    <style>
      .cls-1 {
        fill: #fff;
        fill-rule: evenodd;
      }
    </style>
  </defs>
  <path id="Forma_1" data-name="Forma 1" class="cls-1" d="M349.445,586.724l-5.154-5.153a10.557,10.557,0,0,0,1.029-10.105,10.356,10.356,0,0,0-5.634-5.634,10.542,10.542,0,0,0-8.219,0,10.365,10.365,0,0,0-5.634,5.634,10.542,10.542,0,0,0,0,8.219,10.356,10.356,0,0,0,5.634,5.634,10.4,10.4,0,0,0,4.109.834,10.289,10.289,0,0,0,6-1.863l5.153,5.138a1.785,1.785,0,0,0,1.352.572A1.924,1.924,0,0,0,349.445,586.724Zm-9.113-6.393a6.71,6.71,0,1,1,1.976-4.756A6.483,6.483,0,0,1,340.332,580.331Z" transform="translate(-325 -565)"/>
</svg>
