<svg width="20" height="20" viewBox="0 0 20 20" fill="none" xmlns="http://www.w3.org/2000/svg">
<path fill-rule="evenodd" clip-rule="evenodd" d="M19.092 5.909C19.09 5.909 19.086 5.909 19.083 5.909H0.909977C0.481977 5.909 0.111977 5.609 0.0219766 5.19C-0.0680234 4.771 0.145977 4.347 0.537977 4.17L9.62398 0.0789965C9.86198 -0.0270035 10.133 -0.0270035 10.37 0.0789965L19.387 4.139C19.744 4.261 20.001 4.6 20.001 4.999C20.001 5.502 19.595 5.909 19.092 5.909ZM17.948 15.817C18.449 15.817 18.856 16.224 18.856 16.727C18.856 17.229 18.449 17.636 17.948 17.636H2.04598C1.54398 17.636 1.13698 17.229 1.13698 16.727C1.13698 16.224 1.54398 15.817 2.04598 15.817H2.27298V7.635H2.04598C1.79498 7.635 1.59198 7.431 1.59198 7.181C1.59198 6.93 1.79498 6.726 2.04598 6.726H17.948C18.198 6.726 18.402 6.93 18.402 7.181C18.402 7.431 18.199 7.635 17.948 7.635H17.72V15.817H17.948ZM6.81598 7.635H4.08998V15.817H6.81598V7.635ZM11.359 7.635H8.63298V15.817H11.359V7.635ZM15.903 7.635H13.177V15.817H15.903V7.635ZM0.909977 18.182H19.083C19.585 18.182 19.992 18.589 19.992 19.091C19.992 19.593 19.585 20 19.083 20H0.909977C0.407977 20 0.000976562 19.593 0.000976562 19.091C0.000976562 18.589 0.407977 18.182 0.909977 18.182Z" fill="#9AA2B4"/>
</svg>
